<svg width="150" height="150" viewBox="0 0 150 150" fill="none" xmlns="http://www.w3.org/2000/svg">
<path d="M150 75C150 71.1293 148.763 67.4566 146.428 64.384C144.925 62.4003 144.424 59.8819 145.052 57.4802C146.035 53.741 145.772 49.8747 144.291 46.299C142.81 42.723 140.262 39.803 136.928 37.8577C134.78 36.6006 133.354 34.4654 133.015 32.006C132.493 28.1754 130.77 24.704 128.033 21.9668C125.297 19.2299 121.825 17.5072 118 16.986C115.535 16.6465 113.4 15.22 112.146 13.0778C110.198 9.73828 107.278 7.19004 103.702 5.70879C101.556 4.82021 99.2977 4.36963 96.9891 4.36963C95.4838 4.36963 93.9803 4.56445 92.5266 4.94707C91.8609 5.12109 91.1748 5.20957 90.4872 5.20957C88.7397 5.20957 87.01 4.62832 85.6222 3.57656C82.5436 1.23662 78.871 0 75 0L57.4219 75L75 150C78.871 150 82.5437 148.763 85.6163 146.428C87.0094 145.372 88.7388 144.791 90.4863 144.791C91.1736 144.791 91.8598 144.879 92.5198 145.052C93.9797 145.436 95.4829 145.631 96.9879 145.631C99.2968 145.631 101.556 145.18 103.701 144.292C107.277 142.81 110.197 140.262 112.142 136.928C113.399 134.78 115.535 133.354 117.994 133.015C121.825 132.493 125.297 130.77 128.033 128.033C130.77 125.296 132.493 121.825 133.014 118C133.354 115.535 134.78 113.4 136.922 112.146C140.262 110.198 142.81 107.278 144.291 103.702C145.772 100.126 146.035 96.2602 145.054 92.5263C144.424 90.1187 144.925 87.6003 146.424 85.6219C148.763 82.5434 150 78.8707 150 75Z" fill="#0F9AF0"/>
<path d="M64.3837 3.57217C62.9909 4.62803 61.2612 5.20928 59.5131 5.20928C58.8261 5.20928 58.1399 5.1208 57.4805 4.94854C56.0203 4.56416 54.5168 4.36934 53.0115 4.36934C50.7029 4.36934 48.4444 4.81992 46.2987 5.7085C42.7228 7.19004 39.8027 9.73799 37.8574 13.072C36.6003 15.2197 34.4651 16.6462 32.006 16.9849C28.1751 17.5075 24.7037 19.2302 21.9668 21.9668C19.2299 24.704 17.5072 28.1754 16.9863 31.9998C16.6465 34.4651 15.22 36.6003 13.0778 37.8542C9.73828 39.8024 7.19004 42.7225 5.70908 46.2984C4.22783 49.8741 3.96475 53.7404 4.94678 57.4737C5.57637 59.8816 5.07539 62.3997 3.57598 64.3781C1.23662 67.4566 0 71.1293 0 75C0 78.8707 1.23662 82.5434 3.57217 85.6163C5.07539 87.6 5.57637 90.1181 4.94824 92.5198C3.96475 96.259 4.22783 100.125 5.70879 103.701C7.19004 107.278 9.73828 110.198 13.072 112.142C15.2197 113.399 16.6465 115.534 16.9852 117.993C17.5072 121.825 19.2299 125.296 21.9668 128.033C24.704 130.77 28.1754 132.493 31.9998 133.014C34.4651 133.353 36.6003 134.78 37.8542 136.922C39.8024 140.261 42.7225 142.81 46.2984 144.291C48.4441 145.179 50.7029 145.63 53.0118 145.63C54.5168 145.63 56.02 145.436 57.4737 145.053C58.1396 144.879 58.8258 144.79 59.5131 144.79C61.2606 144.79 62.9903 145.371 64.3778 146.423C67.4563 148.763 71.1293 150 75 150V0C71.1296 0 67.4569 1.23662 64.3837 3.57217Z" fill="#13BDF7"/>
<path d="M75 17.8711L62.3979 75L75 132.129C106.552 132.129 132.129 106.552 132.129 75C132.129 43.4484 106.552 17.8711 75 17.8711Z" fill="#085AAE"/>
<path d="M17.8711 75C17.8711 106.552 43.4484 132.129 75 132.129V17.8711C43.4484 17.8711 17.8711 43.4484 17.8711 75Z" fill="#0A77E8"/>
<path d="M75 48.0707L66.2109 78.8324L114.973 70.0433L103.644 48.0707H75Z" fill="#B2F5FF"/>
<path d="M75 48.0707H46.3561L35.0267 70.0433L75 78.8324V48.0707Z" fill="white"/>
<path d="M75 115.991L114.973 70.0433H75L66.2109 93.0168L75 115.991Z" fill="#18E0FF"/>
<path d="M35.0267 70.0433L75 115.991V70.0433H35.0267Z" fill="#B2F5FF"/>
</svg>
