<svg width="150" height="150" viewBox="0 0 150 150" fill="none" xmlns="http://www.w3.org/2000/svg">
<path d="M150 75C150 116.422 116.422 150 75 150C71.0999 150 67.2707 149.704 63.533 149.13C60.1376 148.611 56.8199 147.86 53.5892 146.902C26.1555 138.744 5.29633 115.313 0.869751 86.467C0.305557 82.782 0.00915527 79.0066 0 75.1648V75C0 33.5781 33.5781 0 75 0C86.5036 0 97.4052 2.5898 107.146 7.21893C108.961 8.08182 110.74 9.01566 112.473 10.0193C117.998 13.2122 123.08 17.0883 127.598 21.5332C133.827 27.6638 138.988 34.8701 142.781 42.857C147.41 52.5982 150 63.4987 150 75Z" fill="#FFE662"/>
<path d="M130.102 66.1995L128.89 44.577L127.598 21.5332L127.591 21.4382C127.253 15.398 122.431 10.5801 116.394 10.2402L112.473 10.0193L108.474 9.79615L93.2545 8.93899L71.6297 7.72363C69.1074 7.57943 66.6458 8.51899 64.8582 10.3077L0 75.1648C0.00915527 79.0066 0.305557 82.782 0.869751 86.467C5.29633 115.313 26.1555 138.744 53.5892 146.902L127.518 72.9675C129.306 71.1823 130.246 68.7218 130.102 66.1995ZM109.216 45.9423C104.431 50.7271 96.6705 50.7305 91.8858 45.9458C87.0975 41.1553 87.101 33.395 91.8858 28.6102C96.6705 23.8255 104.431 23.822 109.221 28.6102C114.006 33.395 114.003 41.1553 109.216 45.9423Z" fill="#FFB525"/>
<path d="M142.781 42.857L141.483 19.717C141.143 13.678 136.322 8.85888 130.285 8.51899L122.366 8.07496L107.146 7.21894L85.5206 6.00244C82.9983 5.86053 80.5367 6.80009 78.7502 8.58651L0.869751 86.467C5.81589 118.708 31.2916 144.184 63.533 149.13L141.411 71.2486C143.196 69.4634 144.136 67.0017 143.995 64.4806L142.781 42.857ZM123.108 44.2223C118.323 49.007 110.563 49.0105 105.778 44.2257C100.99 39.4352 100.993 31.675 105.778 26.8902C110.563 22.1054 118.323 22.102 123.113 26.8902C127.898 31.675 127.895 39.4352 123.108 44.2223Z" fill="#F26065"/>
<path d="M17.5576 109.542C16.5631 108.547 17.1227 106.993 18.179 105.937L28.9639 95.1519C29.9904 94.1254 31.5125 94.7788 32.507 95.7733C33.6571 96.9235 34.1241 98.4455 33.1914 99.3782L25.1416 107.428L30.3944 112.681L35.0876 107.988C36.0203 107.056 37.4497 107.428 38.4442 108.424C39.283 109.261 39.8427 110.692 38.8173 111.717L34.1241 116.41L42.1429 124.429C43.1374 125.424 42.4233 127.134 41.2114 128.345C39.9983 129.557 38.2886 130.273 37.2952 129.278L17.5576 109.542Z" fill="white"/>
<path d="M35.3989 91.6386C34.6218 90.8615 34.528 89.5878 35.4298 88.686L41.8637 82.2521C46.122 77.9938 51.0945 76.1914 56.1608 81.2577C59.642 84.7389 60.046 88.3129 58.7094 91.3285L69.3707 94.4058C69.6808 94.4676 69.9291 94.6541 70.0848 94.8097C71.2979 96.0217 70.9866 98.9422 69.5561 100.373C68.9347 100.994 68.0958 101.336 67.1013 101.025L54.5758 97.0162L52.5238 99.0669L60.0151 106.558C61.0096 107.553 60.2944 109.262 59.0824 110.474C57.8705 111.686 56.1608 112.4 55.1663 111.407L35.3989 91.6386ZM43.0138 89.5569L48.7942 95.3373L51.8715 92.2611C53.6122 90.5205 53.9543 88.749 51.7788 86.5734C49.6021 84.3979 47.8306 84.7389 46.0911 86.4796L43.0138 89.5569Z" fill="white"/>
<path d="M68.2824 74.7929L72.9447 70.1317C73.8774 69.199 75.3068 69.5721 76.3013 70.5666C77.1401 71.4054 77.6997 72.8348 76.6743 73.8602L72.012 78.5225L77.2957 83.8062L85.6259 75.4761C86.5586 74.5445 88.0818 75.0103 89.2319 76.1604C90.2264 77.1549 90.8787 78.6781 89.8533 79.7035L78.7881 90.7688C77.7318 91.8251 76.1777 92.3847 75.1832 91.3902L55.4467 71.6537C54.451 70.6593 55.0107 69.1051 56.0681 68.0477L67.1322 56.9836C68.1588 55.9582 69.6808 56.6105 70.6753 57.605C71.8255 58.7551 72.2924 60.2783 71.3597 61.211L63.0295 69.54L68.2824 74.7929Z" fill="white"/>
<path d="M86.8996 56.1756L91.5619 51.5144C92.4946 50.5817 93.924 50.9548 94.9185 51.9493C95.7573 52.7882 96.3169 54.2175 95.2916 55.2429L90.6292 59.9052L95.913 65.189L104.243 56.86C105.176 55.9273 106.699 56.393 107.848 57.5432C108.844 58.5377 109.496 60.0609 108.471 61.0863L97.4053 72.1516C96.3478 73.2079 94.7949 73.7675 93.8004 72.773L74.0639 53.0365C73.0694 52.042 73.6279 50.4879 74.6842 49.4316L85.7495 38.3663C86.776 37.3409 88.2981 37.9932 89.2926 38.9877C90.4427 40.1379 90.9096 41.6611 89.9769 42.5938L81.6468 50.9228L86.8996 56.1756Z" fill="white"/>
</svg>
